<?xml version="1.0" encoding="UTF-8"?>
<svg version="1.1" xmlns="http://www.w3.org/2000/svg" width="500" height="500">
<path d="M0 0 C165 0 330 0 500 0 C500 165 500 330 500 500 C335 500 170 500 0 500 C0 335 0 170 0 0 Z " fill="#121212" transform="translate(0,0)"/>
<path d="M0 0 C3.77793677 1.37009556 6.86413097 3.12669421 10.1875 5.375 C13.72224735 7.67471514 17.04230694 9.54821467 21 11 C32.15800688 15.21524704 40.94028354 21.88056708 46.34375 32.6875 C51.33439318 44.66504364 51.29948945 55.6271403 46.54296875 67.73828125 C44.2980248 72.48392225 41.61697566 76.21462264 38 80 C37.34257812 80.69738281 36.68515625 81.39476562 36.0078125 82.11328125 C26.91872398 90.95266953 16.55848804 94.49012277 4.21484375 95.578125 C1.22053795 95.97105942 -0.39672356 96.61269132 -3 98 C-7.8489218 98.83754104 -11.0924586 98.59339245 -15.25 95.875 C-18 93 -18 93 -20.3125 90 C-23.36832451 86.15782326 -27.52230785 83.89505323 -32 82 C-36.01094227 82 -37.74328725 83.76100999 -41 86 C-44.56471391 87.18823797 -47.2558336 87.26274852 -51 87 C-51.61488281 86.51402344 -52.22976563 86.02804687 -52.86328125 85.52734375 C-55.56406994 83.59679827 -57.46261089 83.50817792 -60.75 83.3125 C-61.73484375 83.24675781 -62.7196875 83.18101562 -63.734375 83.11328125 C-64.85585938 83.05720703 -64.85585938 83.05720703 -66 83 C-66 83.66 -66 84.32 -66 85 C-65.34 85 -64.68 85 -64 85 C-64 85.66 -64 86.32 -64 87 C-70.27 87 -76.54 87 -83 87 C-83 85.68 -83 84.36 -83 83 C-87.29 83 -91.58 83 -96 83 C-96 83.66 -96 84.32 -96 85 C-95.34 85 -94.68 85 -94 85 C-94 85.66 -94 86.32 -94 87 C-99.52966915 87.19326999 -103.87699535 87.27689095 -109 85 C-110.99961564 84.96079185 -113.00049364 84.95556653 -115 85 C-115.66 84.67 -116.32 84.34 -117 84 C-118.70363822 83.77377919 -120.41328701 83.59111527 -122.125 83.4375 C-123.49011719 83.31181641 -123.49011719 83.31181641 -124.8828125 83.18359375 C-125.58148438 83.12300781 -126.28015625 83.06242187 -127 83 C-127 83.66 -127 84.32 -127 85 C-126.34 85 -125.68 85 -125 85 C-125 85.66 -125 86.32 -125 87 C-127.87557703 87.08138426 -130.74882262 87.14067851 -133.625 87.1875 C-134.43324219 87.21263672 -135.24148438 87.23777344 -136.07421875 87.26367188 C-141.27901163 87.32714496 -144.36343203 86.5527172 -149 84 C-151.96165991 83.43793046 -151.96165991 83.43793046 -154.875 83.3125 C-155.84179688 83.24675781 -156.80859375 83.18101562 -157.8046875 83.11328125 C-158.52914062 83.07589844 -159.25359375 83.03851563 -160 83 C-160 83.66 -160 84.32 -160 85 C-159.34 85 -158.68 85 -158 85 C-158 85.66 -158 86.32 -158 87 C-159.04800781 86.87431641 -159.04800781 86.87431641 -160.1171875 86.74609375 C-161.02726563 86.64425781 -161.93734375 86.54242188 -162.875 86.4375 C-163.77992188 86.33308594 -164.68484375 86.22867188 -165.6171875 86.12109375 C-168.01653057 85.80325148 -168.01653057 85.80325148 -170 87 C-171.82934565 87.14679934 -173.66500243 87.22102635 -175.5 87.25 C-176.4796875 87.27578125 -177.459375 87.3015625 -178.46875 87.328125 C-179.3040625 87.21984375 -180.139375 87.1115625 -181 87 C-181.66 86.01 -182.32 85.02 -183 84 C-183.66 84 -184.32 84 -185 84 C-185 84.66 -185 85.32 -185 86 C-191.31048502 87.87200991 -198.46779011 88.0217689 -204.5625 85.5625 C-205.7690625 84.7890625 -205.7690625 84.7890625 -207 84 C-210.28519475 82.90493508 -212.73663415 82.90039392 -216.1875 82.9375 C-217.27417969 82.94652344 -218.36085937 82.95554687 -219.48046875 82.96484375 C-220.31191406 82.97644531 -221.14335937 82.98804688 -222 83 C-222 83.66 -222 84.32 -222 85 C-221.34 85.33 -220.68 85.66 -220 86 C-220.88486084 86.17088135 -220.88486084 86.17088135 -221.78759766 86.34521484 C-228.35192866 87.63296668 -234.86261929 89.09837872 -241.375 90.625 C-264.41273576 95.97643727 -287.49197502 101.12151952 -310.66650391 105.84716797 C-321.84941561 108.14202238 -332.96131813 110.71701063 -344.07617188 113.31835938 C-348.5258336 114.35572206 -352.97987976 115.37243528 -357.4375 116.375 C-358.53807739 116.62660889 -358.53807739 116.62660889 -359.66088867 116.88330078 C-362.51282529 117.5215012 -365.06634488 118 -368 118 C-368.495 115.03 -368.495 115.03 -369 112 C-365.9453325 110.79031406 -362.89063777 109.58069693 -359.8359375 108.37109375 C-358.87270569 107.98965714 -357.90947388 107.60822052 -356.91705322 107.21522522 C-351.55103117 105.09045885 -346.18470682 102.96646037 -340.81787109 100.84375 C-338.60253108 99.96746811 -336.38719909 99.09116591 -334.171875 98.21484375 C-332.50682419 97.55619827 -332.50682419 97.55619827 -330.80813599 96.88424683 C-324.66600776 94.45368312 -318.52611317 92.01763903 -312.38937378 89.57350159 C-308.94088515 88.2004019 -305.49119317 86.83034264 -302.0413208 85.46072388 C-300.44628284 84.82654026 -298.85182769 84.19088858 -297.25799561 83.55368042 C-295.04068606 82.66737457 -292.82136718 81.78628439 -290.6015625 80.90625 C-289.66065765 80.52775658 -289.66065765 80.52775658 -288.70074463 80.14161682 C-283.55861412 78.11264364 -278.30918836 76.53192988 -273 75 C-273.01110306 74.43481155 -273.02220612 73.86962311 -273.03364563 73.28730774 C-273.14436013 67.39881206 -273.21971684 61.51061253 -273.2746582 55.62133789 C-273.29978509 53.4242756 -273.33389246 51.22729676 -273.37719727 49.03051758 C-273.43792762 45.87039595 -273.46622833 42.71138043 -273.48828125 39.55078125 C-273.51408768 38.57039383 -273.5398941 37.59000641 -273.56648254 36.57991028 C-273.56840135 31.90259162 -273.55078275 29.72800659 -270.65698242 25.90307617 C-265.42491625 22.15558414 -260.1352938 22.74585964 -253.9375 22.6875 C-252.43799805 22.64399414 -252.43799805 22.64399414 -250.90820312 22.59960938 C-243.53639838 22.53733942 -235.9305499 23.37458416 -230.27661133 28.58959961 C-228.875 30.25 -228.875 30.25 -227 33 C-226.649375 31.906875 -226.29875 30.81375 -225.9375 29.6875 C-224.91309274 26.49375973 -223.93613587 25.96471729 -220.91015625 24.29296875 C-216.76878079 22.69584878 -212.89731336 22.55420247 -208.5 22.625 C-207.41912109 22.60759766 -207.41912109 22.60759766 -206.31640625 22.58984375 C-200.42388563 22.62181041 -195.31742445 23.68257555 -191 28 C-189.62134766 26.77796875 -189.62134766 26.77796875 -188.21484375 25.53125 C-183.26841067 22.00892199 -178.44340845 22.33359487 -172.5625 22.5 C-171.06493164 22.49613281 -171.06493164 22.49613281 -169.53710938 22.4921875 C-162.02504544 22.59096546 -156.34957535 23.76694977 -150 28 C-150 27.34 -150 26.68 -150 26 C-146.37888096 23.58592064 -144.66292475 23.74245274 -140.35546875 23.734375 C-139.03869141 23.73179687 -137.72191406 23.72921875 -136.36523438 23.7265625 C-135.67905029 23.73075195 -134.99286621 23.73494141 -134.28588867 23.73925781 C-132.20526594 23.74990905 -130.12551687 23.73938285 -128.04492188 23.7265625 C-126.71093561 23.72788515 -125.37694989 23.73044973 -124.04296875 23.734375 C-122.23348755 23.73775879 -122.23348755 23.73775879 -120.38745117 23.74121094 C-117 24 -117 24 -113.80981445 25.20410156 C-112.4189563 25.59807129 -112.4189563 25.59807129 -111 26 C-110.3941658 25.52974899 -109.7883316 25.05949799 -109.16413879 24.57499695 C-106.4449391 22.59604291 -104.901091 22.61481171 -101.56396484 22.59594727 C-100.47538177 22.58326309 -99.38679871 22.57057892 -98.26522827 22.55751038 C-97.09231232 22.56044601 -95.91939636 22.56338165 -94.7109375 22.56640625 C-93.49733551 22.5611644 -92.28373352 22.55592255 -91.03335571 22.55052185 C-88.46283737 22.54409623 -85.89228964 22.54544557 -83.32177734 22.55395508 C-79.41059054 22.56242295 -75.50088469 22.53377628 -71.58984375 22.50195312 C-69.0885421 22.50033985 -66.58723789 22.50092106 -64.0859375 22.50390625 C-62.92516693 22.49267227 -61.76439636 22.48143829 -60.56845093 22.46986389 C-51.21262718 22.5491116 -43.81233137 24.79177908 -36 30 C-35.6596875 29.1646875 -35.6596875 29.1646875 -35.3125 28.3125 C-33.6149149 25.32151673 -31.51535592 23.34385438 -29 21 C-28.154375 20.195625 -27.30875 19.39125 -26.4375 18.5625 C-21.26357941 14.30479451 -14.64099719 11.25459581 -8.3359375 9.08203125 C-5.529598 7.78210476 -4.43746068 6.39819912 -2.6875 3.875 C-2.17574219 3.15054688 -1.66398437 2.42609375 -1.13671875 1.6796875 C-0.57404297 0.84824219 -0.57404297 0.84824219 0 0 Z " fill="#10283F" transform="translate(399,204)"/>
<path d="M0 0 C2 0 2 0 3.578125 1.3203125 C4.12984375 1.91585937 4.6815625 2.51140625 5.25 3.125 C5.81203125 3.70507812 6.3740625 4.28515625 6.953125 4.8828125 C8 7 8 7 7.28271484 9.69921875 C5.9082928 13.23598808 4.28883489 16.57775425 2.5234375 19.9296875 C2.19332672 20.56488312 1.86321594 21.20007874 1.52310181 21.85452271 C0.47783734 23.86351848 -0.57346663 25.86927961 -1.625 27.875 C-2.33894465 29.24458167 -3.05249036 30.61437139 -3.765625 31.984375 C-5.50581304 35.3253399 -7.25142112 38.66341954 -9 42 C-8.61183105 42.42917725 -8.22366211 42.85835449 -7.82373047 43.30053711 C0.05842132 52.21814909 5.19305691 61.44303237 4.484375 73.61328125 C3.07530942 83.4653769 -0.33005232 90.66447367 -7 98 C-7.53496094 98.62648438 -8.06992187 99.25296875 -8.62109375 99.8984375 C-17.70563979 109.87618831 -31.83277442 115.33088666 -45.07397461 116.12426758 C-58.62990748 116.6395749 -69.51423745 114.83038726 -81 107 C-82.11541052 105.67213034 -83.20135715 104.31870478 -84.25 102.9375 C-85.81200169 101.06809863 -85.81200169 101.06809863 -88 100 C-93.24961254 100.08242145 -98.02117558 101.48481204 -103 103 C-104.20140625 103.33773437 -105.4028125 103.67546875 -106.640625 104.0234375 C-131.15447962 111.50493859 -151.01260611 125.01260611 -169 143 C-171.15478516 143.22705078 -171.15478516 143.22705078 -173.7890625 143.1953125 C-174.73007812 143.18886719 -175.67109375 143.18242187 -176.640625 143.17578125 C-177.62546875 143.15902344 -178.6103125 143.14226562 -179.625 143.125 C-180.61757813 143.11597656 -181.61015625 143.10695312 -182.6328125 143.09765625 C-185.08878134 143.07404116 -187.54427168 143.04110799 -190 143 C-186.96806809 140.67647091 -183.9217852 138.82322127 -180.5625 137 C-175.81658128 134.26750134 -171.72700355 131.27284376 -167.625 127.6875 C-154.61217243 116.32132118 -140.40575584 107.62361021 -124.93554688 99.97998047 C-118.78291387 96.92578513 -112.79658654 93.69542612 -107 90 C-106.03449219 89.39671875 -105.06898438 88.7934375 -104.07421875 88.171875 C-99.00303943 84.76153873 -99.00303943 84.76153873 -96.3359375 79.50390625 C-96.23471828 77.66864205 -96.18205796 75.83021261 -96.171875 73.9921875 C-95.53156822 62.8450286 -88.79516838 53.42756442 -80.90625 46.0390625 C-67.99534255 35.32675161 -52.65314024 30.57415484 -36 32 C-31.60137712 32.7914792 -27.30389933 33.79891181 -23 35 C-22.7321167 34.43555176 -22.4642334 33.87110352 -22.18823242 33.28955078 C-20.92821669 30.86168402 -19.50821878 28.64121864 -17.98828125 26.3671875 C-17.39466797 25.47773437 -16.80105469 24.58828125 -16.18945312 23.671875 C-15.57005859 22.74890625 -14.95066406 21.8259375 -14.3125 20.875 C-13.71244141 19.97523437 -13.11238281 19.07546875 -12.49414062 18.1484375 C-10.67286662 15.42532965 -8.83809124 12.71177884 -7 10 C-6.35724121 9.0399707 -5.71448242 8.07994141 -5.05224609 7.09082031 C-4.43043457 6.17655273 -3.80862305 5.26228516 -3.16796875 4.3203125 C-2.60746826 3.49031738 -2.04696777 2.66032227 -1.46948242 1.80517578 C-0.74208862 0.91161377 -0.74208862 0.91161377 0 0 Z " fill="#E40808" transform="translate(448,84)"/>
<path d="M0 0 C7.30661859 5.18947169 12.01594287 11.94048622 14.6484375 20.49609375 C14.7309375 21.34171875 14.8134375 22.18734375 14.8984375 23.05859375 C14.96160156 23.67992187 15.02476562 24.30125 15.08984375 24.94140625 C15.60918608 34.28956822 12.71999492 42.46181629 6.5859375 49.49609375 C-1.63351684 57.87671386 -9.07461473 62.31389424 -21.0390625 62.43359375 C-31.34799286 62.31902383 -39.13890454 59.71663543 -47.1015625 53.05859375 C-54.10270774 45.55409819 -57.53255181 36.84604682 -57.37890625 26.5859375 C-56.38111188 17.49336066 -51.95592074 9.48190961 -45.25390625 3.375 C-43.27008336 1.79346326 -41.24694902 0.41146808 -39.1015625 -0.94140625 C-38.18890625 -1.56402344 -38.18890625 -1.56402344 -37.2578125 -2.19921875 C-25.94234968 -8.62029487 -10.74268145 -6.22274205 0 0 Z " fill="#131111" transform="translate(423.1015625,129.94140625)"/>
<path d="M0 0 C3.77793677 1.37009556 6.86413097 3.12669421 10.1875 5.375 C13.72224735 7.67471514 17.04230694 9.54821467 21 11 C32.15800688 15.21524704 40.94028354 21.88056708 46.34375 32.6875 C51.33439318 44.66504364 51.29948945 55.6271403 46.54296875 67.73828125 C44.2980248 72.48392225 41.61697566 76.21462264 38 80 C37.34257812 80.69738281 36.68515625 81.39476562 36.0078125 82.11328125 C28.80281711 89.12033721 18.98659188 94.65154486 8.76171875 95.09765625 C8.07722656 95.08605469 7.39273438 95.07445312 6.6875 95.0625 C4.8621875 95.0315625 4.8621875 95.0315625 3 95 C3.34933594 94.52949219 3.69867188 94.05898438 4.05859375 93.57421875 C4.74115234 92.64029297 4.74115234 92.64029297 5.4375 91.6875 C6.11619141 90.76517578 6.11619141 90.76517578 6.80859375 89.82421875 C8.17336308 87.90322899 8.17336308 87.90322899 9 85 C10.96875 84.078125 10.96875 84.078125 13.5 83.25 C23.36742575 79.50037822 29.50656274 73.53198002 34 64 C36.82580964 56.67636186 37.37176774 49.31350539 34.97265625 41.76953125 C31.12894869 33.36874105 25.50355038 26.53088789 16.75 23.0625 C5.71026475 19.93457501 -4.7316726 20.46123187 -15.875 22.6875 C-16.65891113 22.83598389 -17.44282227 22.98446777 -18.25048828 23.13745117 C-23.96195066 24.3749952 -28.23779236 26.66024367 -33 30 C-33.99 30.66 -34.98 31.32 -36 32 C-36.33 31.34 -36.66 30.68 -37 30 C-29.95578122 19.48703713 -20.31980277 13.2071086 -8.34375 9.0859375 C-5.53274794 7.78350654 -4.44038275 6.40241234 -2.6875 3.875 C-1.91986328 2.78832031 -1.91986328 2.78832031 -1.13671875 1.6796875 C-0.76160156 1.12539062 -0.38648438 0.57109375 0 0 Z " fill="#E30808" transform="translate(399,204)"/>
<path d="M0 0 C5.49166232 4.00679225 8.72699307 8.54954456 9.8203125 15.328125 C10.65792399 24.08288614 10.10025759 31.07473509 4.8203125 38.328125 C2.59857917 40.6187137 0.39259571 42.41152182 -2.1796875 44.328125 C-0.1996875 45.648125 1.7803125 46.968125 3.8203125 48.328125 C3.48817099 51.42811246 2.7658113 52.3826262 0.5078125 54.640625 C-2.1796875 56.328125 -2.1796875 56.328125 -4.05078125 56.234375 C-7.07267929 54.94798904 -8.71506499 52.92420331 -10.9296875 50.515625 C-14.58310722 46.7225157 -17.57654811 44.37082478 -22.359375 42.30859375 C-26.70893141 39.96580693 -29.47188573 36.04430189 -31.3203125 31.5625 C-33.19848466 24.49374297 -33.6807161 15.56323996 -30.6171875 8.765625 C-27.71173468 4.03653691 -23.58803854 0.76011751 -18.8671875 -2.046875 C-12.19506484 -3.59853143 -6.01600577 -3.45859441 0 0 Z " fill="#E30809" transform="translate(396.1796875,237.671875)"/>
<path d="M0 0 C0.309375 1.60875 0.309375 1.60875 0.625 3.25 C1.95365836 6.8736137 2.74152943 8.22258902 5.97119141 10.21484375 C10.39971946 11.92870009 15.19889823 11.48321673 19.875 11.375 C20.92558594 11.37371094 21.97617188 11.37242187 23.05859375 11.37109375 C27.72207756 11.31856389 32.05421222 11.13917775 36.5703125 9.921875 C40.32292025 8.91320139 41.67151371 9.12772646 45 11 C42.67759349 13.32240651 41.54099261 13.52041906 38.3828125 14.2265625 C37.40207764 14.44957031 36.42134277 14.67257812 35.41088867 14.90234375 C34.32654541 15.14082031 33.24220215 15.37929688 32.125 15.625 C30.98458252 15.88152344 29.84416504 16.13804687 28.66918945 16.40234375 C25.47157915 17.11986667 22.27251116 17.83048348 19.07293701 18.53918457 C16.21820529 19.17379354 13.36533021 19.81654653 10.51242065 20.45928955 C-5.518613 24.06996781 -21.56491108 27.56380167 -37.66650391 30.84716797 C-48.84941561 33.14202238 -59.96131813 35.71701063 -71.07617188 38.31835938 C-75.5258336 39.35572206 -79.97987976 40.37243528 -84.4375 41.375 C-85.53807739 41.62660889 -85.53807739 41.62660889 -86.66088867 41.88330078 C-89.51282529 42.5215012 -92.06634488 43 -95 43 C-95.33 41.02 -95.66 39.04 -96 37 C-50.6961367 19.05911236 -50.6961367 19.05911236 -28.93145752 10.46072388 C-27.32324851 9.82528411 -25.71513334 9.18960681 -24.1071167 8.55368042 C-21.87376188 7.67052502 -19.64005435 6.78826765 -17.40625 5.90625 C-16.76865753 5.65392105 -16.13106506 5.4015921 -15.47415161 5.14161682 C-13.65145564 4.4225995 -11.82573622 3.71126209 -10 3 C-9.28481201 2.72051514 -8.56962402 2.44103027 -7.83276367 2.15307617 C-2.23375804 0 -2.23375804 0 0 0 Z " fill="#E30808" transform="translate(126,279)"/>
<path d="M0 0 C3.87474457 -0.11668214 7.74903396 -0.18741231 11.625 -0.25 C13.26662109 -0.30027344 13.26662109 -0.30027344 14.94140625 -0.3515625 C21.28344353 -0.42843568 25.21510109 -0.34035594 30 4 C32.58644464 7.4094043 32.36503115 10.8386449 32 15 C30.5625 17.75 30.5625 17.75 29 20 C28.67 20.99 28.34 21.98 28 23 C28.825 23.598125 29.65 24.19625 30.5 24.8125 C33.20719149 27.5042659 33.44584173 29.74157499 33.5625 33.5 C33.38477138 37.06898283 33.07330762 38.86184333 31.375 42.0625 C25.53145241 46.82960461 18.85014752 46.27569851 11.6875 46.1875 C10.67365234 46.18685547 9.65980469 46.18621094 8.61523438 46.18554688 C1.14048812 46.14048812 1.14048812 46.14048812 0 45 C-0.0928726 43.58774954 -0.11746772 42.17091066 -0.11352539 40.75561523 C-0.11344986 39.85475693 -0.11337433 38.95389862 -0.11329651 38.02574158 C-0.10813522 37.04658279 -0.10297394 36.06742401 -0.09765625 35.05859375 C-0.0962413 34.06118668 -0.09482635 33.0637796 -0.09336853 32.03614807 C-0.08775114 28.83656876 -0.07519571 25.63705831 -0.0625 22.4375 C-0.05748724 20.27408955 -0.05292395 18.11067801 -0.04882812 15.94726562 C-0.03777607 10.63148675 -0.02102104 5.31574829 0 0 Z " fill="#E30809" transform="translate(134,236)"/>
<path d="M0 0 C2.75143095 -0.06182991 5.50286247 -0.12344275 8.2543335 -0.18347168 C10.36919112 -0.23248397 12.48378601 -0.29317245 14.59814453 -0.36035156 C20.72617886 -0.42697231 24.39781897 -0.19477484 29 4 C31.47310494 7.70965741 31.55899802 10.69814567 31 15 C29.5 18.5 29.5 18.5 28 21 C27.34 21 26.68 21 26 21 C26 21.66 26 22.32 26 23 C26.598125 23.226875 27.19625 23.45375 27.8125 23.6875 C30.73627001 25.44176201 31.63847463 26.86849164 33 30 C33.82639885 36.50789096 33.82639885 36.50789096 32.015625 39.77734375 C29.7020807 42.6978364 27.44033259 44.64862091 24 46 C21.45043945 46.24291992 21.45043945 46.24291992 18.61328125 46.23046875 C17.0828418 46.22756836 17.0828418 46.22756836 15.52148438 46.22460938 C14.46251953 46.21236328 13.40355469 46.20011719 12.3125 46.1875 C10.70665039 46.1865332 10.70665039 46.1865332 9.06835938 46.18554688 C1.14030114 46.14030114 1.14030114 46.14030114 0 45 C-0.0928726 43.58774954 -0.11746772 42.17091066 -0.11352539 40.75561523 C-0.11344986 39.85475693 -0.11337433 38.95389862 -0.11329651 38.02574158 C-0.10813522 37.04658279 -0.10297394 36.06742401 -0.09765625 35.05859375 C-0.0962413 34.06118668 -0.09482635 33.0637796 -0.09336853 32.03614807 C-0.08775114 28.83656876 -0.07519571 25.63705831 -0.0625 22.4375 C-0.05748724 20.27408955 -0.05292395 18.11067801 -0.04882812 15.94726562 C-0.03777607 10.63148675 -0.02102104 5.31574829 0 0 Z " fill="#E60808" transform="translate(256,236)"/>
<path d="M0 0 C24.4375 0 24.4375 0 30.375 5 C32.85123655 9.57151364 32.77681543 13.91335278 32 19 C30.9045511 21.34671596 29.63559803 22.95550247 28 25 C28 29.38855595 30.40221003 31.94481916 32.78515625 35.52734375 C34 38 34 38 33.8203125 40.17578125 C32.50441523 43.10208614 30.69273375 44.32452123 28 46 C24.875 46.5 24.875 46.5 22 46 C19.50741967 43.23607548 18.15505397 40.3214029 16.8125 36.875 C16.46832031 36.00617188 16.12414062 35.13734375 15.76953125 34.2421875 C15 32 15 32 15 30 C14.01 30 13.02 30 12 30 C12 35.28 12 40.56 12 46 C8.04 46 4.08 46 0 46 C0 30.82 0 15.64 0 0 Z " fill="#E50808" transform="translate(216,236)"/>
<path d="M0 0 C21 0 21 0 28 3 C31.71056201 6.99598985 32.64114516 10.36330659 32.5 15.65625 C31.90398777 18.45005734 30.73022117 20.01104479 29.0625 22.3125 C27.52158473 24.46402103 27.52158473 24.46402103 27 27 C28.45541983 30.47196537 30.27456419 33.26039785 32.48828125 36.30078125 C34 39 34 39 33.37109375 41.24609375 C31.49156064 43.65039678 29.78024253 44.7362534 27 46 C25.00060639 46.04924615 22.99923733 46.05522755 21 46 C20.51789063 44.92878906 20.03578125 43.85757813 19.5390625 42.75390625 C18.90137434 41.35661896 18.26333531 39.95949176 17.625 38.5625 C17.30789063 37.85544922 16.99078125 37.14839844 16.6640625 36.41992188 C15.1118313 32.52943438 15.1118313 32.52943438 12 30 C12 35.28 12 40.56 12 46 C8.04 46 4.08 46 0 46 C0 30.82 0 15.64 0 0 Z " fill="#E60808" transform="translate(327,236)"/>
<path d="M0 0 C7.20919115 6.00028793 12.79632975 12.76194744 14.10546875 22.29296875 C14.54728047 32.2874663 11.76800306 40.79742272 5.5 48.625 C0.24988037 54.11584564 -6.54441415 58.84115338 -14.3125 59.25 C-15.79288361 52.09481255 -15.79288361 52.09481255 -13.5 48.0625 C-12.778125 47.134375 -12.05625 46.20625 -11.3125 45.25 C-8.67883303 40.42623102 -8.92905297 35.41932456 -8.9375 30.0625 C-8.93766113 29.12156494 -8.93782227 28.18062988 -8.93798828 27.21118164 C-9.04834993 20.5191999 -9.90494208 15.10751745 -13.3125 9.25 C-13.65152344 8.52941406 -13.99054688 7.80882812 -14.33984375 7.06640625 C-15.63524076 4.64729135 -16.8009809 4.33606231 -19.3125 3.25 C-20.26125 2.59 -21.21 1.93 -22.1875 1.25 C-27.62622845 -1.95347082 -34.15645909 -2.10109694 -40.3125 -2.75 C-40.3125 -3.08 -40.3125 -3.41 -40.3125 -3.75 C-27.04206406 -6.7832425 -11.69240587 -8.26646464 0 0 Z " fill="#141212" transform="translate(422.3125,229.75)"/>
<path d="M0 0 C5.94 0 11.88 0 18 0 C19.5625 5.875 19.5625 5.875 20.11645508 7.96582031 C21.32685178 12.52089619 22.56817869 17.06666443 23.82421875 21.609375 C24.14124756 22.76453613 24.45827637 23.91969727 24.78491211 25.10986328 C25.42260857 27.43254319 26.06526168 29.75386857 26.71313477 32.07373047 C27.15677368 33.69625732 27.15677368 33.69625732 27.609375 35.3515625 C27.87717773 36.31916504 28.14498047 37.28676758 28.42089844 38.28369141 C29 41 29 41 29 46 C24.71 46 20.42 46 16 46 C13 38.25 13 38.25 13 36 C9.37 36 5.74 36 2 36 C1.896875 37.27875 1.79375 38.5575 1.6875 39.875 C1.51171875 42.0546875 1.51171875 42.0546875 1 44 C-2.68250353 46.45500235 -4.72157798 46.18198325 -8.99536133 46.05810547 C-9.65689209 46.03893066 -10.31842285 46.01975586 -11 46 C-10.52396821 37.86450064 -8.73084916 30.29092505 -6.625 22.4375 C-6.32078125 21.27025391 -6.0165625 20.10300781 -5.703125 18.90039062 C-4.01890347 12.5125846 -2.17076269 6.23927803 0 0 Z " fill="#E30809" transform="translate(182,236)"/>
<path d="M0 0 C8.58 0 17.16 0 26 0 C26 3.96 26 7.92 26 12 C21.71 12 17.42 12 13 12 C13 13.98 13 15.96 13 18 C13.63808594 17.98839844 14.27617187 17.97679687 14.93359375 17.96484375 C16.17302734 17.95130859 16.17302734 17.95130859 17.4375 17.9375 C18.26121094 17.92589844 19.08492188 17.91429687 19.93359375 17.90234375 C22 18 22 18 23 19 C23.1328125 20.8125 23.1328125 20.8125 23.125 23 C23.12886719 24.0828125 23.12886719 24.0828125 23.1328125 25.1875 C23 27 23 27 22 28 C20.48071962 28.07179964 18.95832518 28.08392007 17.4375 28.0625 C16.19806641 28.04896484 16.19806641 28.04896484 14.93359375 28.03515625 C13.97646484 28.01775391 13.97646484 28.01775391 13 28 C13 30.31 13 32.62 13 35 C14.39025391 34.98259766 14.39025391 34.98259766 15.80859375 34.96484375 C17.00613281 34.95582031 18.20367187 34.94679688 19.4375 34.9375 C20.63246094 34.92589844 21.82742188 34.91429687 23.05859375 34.90234375 C26 35 26 35 27 36 C27.0979057 37.49738124 27.12974864 38.99942892 27.125 40.5 C27.12886719 41.72203125 27.12886719 41.72203125 27.1328125 42.96875 C27 45 27 45 26 46 C24.15840977 46.09959621 22.31303033 46.13080411 20.46875 46.1328125 C19.34855469 46.13410156 18.22835938 46.13539063 17.07421875 46.13671875 C15.89472656 46.13285156 14.71523438 46.12898438 13.5 46.125 C11.73076172 46.13080078 11.73076172 46.13080078 9.92578125 46.13671875 C8.24548828 46.13478516 8.24548828 46.13478516 6.53125 46.1328125 C5.49548828 46.13168457 4.45972656 46.13055664 3.39257812 46.12939453 C1 46 1 46 0 45 C-0.0928726 43.58774954 -0.11746772 42.17091066 -0.11352539 40.75561523 C-0.11344986 39.85475693 -0.11337433 38.95389862 -0.11329651 38.02574158 C-0.10813522 37.04658279 -0.10297394 36.06742401 -0.09765625 35.05859375 C-0.0962413 34.06118668 -0.09482635 33.0637796 -0.09336853 32.03614807 C-0.08775114 28.83656876 -0.07519571 25.63705831 -0.0625 22.4375 C-0.05748724 20.27408955 -0.05292395 18.11067801 -0.04882812 15.94726562 C-0.03862505 10.63146226 -0.01905308 5.31580861 0 0 Z " fill="#E40809" transform="translate(294,236)"/>
<path d="M0 0 C3.81019695 1.17769724 4.50823506 1.7107621 6.4375 5.0625 C7.17328908 9.90283796 6.95039269 14.55399208 5.375 19.1875 C3.4375 21.0625 3.4375 21.0625 0 22.1875 C-3.5625 22.0625 -3.5625 22.0625 -6 20.375 C-8.38602796 15.31662074 -8.2973684 10.55507306 -7.5625 5.0625 C-5.52249965 0.73769927 -4.79589393 0.08413849 0 0 Z " fill="#11283F" transform="translate(385.5625,247.9375)"/>
<path d="M0 0 C1.60379341 -0.05416188 3.20811406 -0.09286638 4.8125 -0.125 C5.70582031 -0.14820313 6.59914063 -0.17140625 7.51953125 -0.1953125 C10 0 10 0 13 2 C13.1875 4.5 13.1875 4.5 13 7 C13 7.66 13 8.32 13 9 C13.33 9.33 13.66 9.66 14 10 C14.25 12.9375 14.25 12.9375 14 16 C10.57905758 18.28062828 9.31812778 18.21925007 5.3125 18.125 C3.82169922 18.09792969 3.82169922 18.09792969 2.30078125 18.0703125 C1.54152344 18.04710937 0.78226562 18.02390625 0 18 C0.66 17.67 1.32 17.34 2 17 C2 12.05 2 7.1 2 2 C1.34 2 0.68 2 0 2 C0 1.34 0 0.68 0 0 Z " fill="#B80E12" transform="translate(272,287)"/>
<path d="M0 0 C1.7492214 -0.08142927 3.49954542 -0.13938541 5.25 -0.1875 C6.22453125 -0.22230469 7.1990625 -0.25710938 8.203125 -0.29296875 C11.37468742 0.03924798 12.67040307 0.88672279 15 3 C14.67 4.65 14.34 6.3 14 8 C13.01 8.33 12.02 8.66 11 9 C11.78927699 10.12667784 12.58151655 11.25128067 13.375 12.375 C13.81585938 13.00148438 14.25671875 13.62796875 14.7109375 14.2734375 C16.02808866 16.12380509 16.02808866 16.12380509 18 18 C15.75 18.3125 15.75 18.3125 13 18 C10.875 15.6875 10.875 15.6875 9 13 C8.01769502 11.9826127 7.02530403 10.97403883 6 10 C6 12.31 6 14.62 6 17 C6.66 17.33 7.32 17.66 8 18 C5.36 18 2.72 18 0 18 C0.66 17.34 1.32 16.68 2 16 C2.30059943 13.63490639 2.49515012 11.25558119 2.625 8.875 C2.69976562 7.59367187 2.77453125 6.31234375 2.8515625 4.9921875 C2.90054687 4.00476563 2.94953125 3.01734375 3 2 C2.01 2 1.02 2 0 2 C0 1.34 0 0.68 0 0 Z " fill="#C10C0E" transform="translate(333,287)"/>
<path d="M0 0 C1.7492214 -0.08142927 3.49954542 -0.13938541 5.25 -0.1875 C6.22453125 -0.22230469 7.1990625 -0.25710938 8.203125 -0.29296875 C11.37468742 0.03924798 12.67040307 0.88672279 15 3 C14.67 4.65 14.34 6.3 14 8 C13.01 8.33 12.02 8.66 11 9 C11.78927699 10.12667784 12.58151655 11.25128067 13.375 12.375 C13.81585938 13.00148438 14.25671875 13.62796875 14.7109375 14.2734375 C16.02808866 16.12380509 16.02808866 16.12380509 18 18 C15.75 18.3125 15.75 18.3125 13 18 C10.875 15.6875 10.875 15.6875 9 13 C8.01769502 11.9826127 7.02530403 10.97403883 6 10 C6 12.31 6 14.62 6 17 C6.66 17.33 7.32 17.66 8 18 C5.36 18 2.72 18 0 18 C0.66 17.34 1.32 16.68 2 16 C2.30059943 13.63490639 2.49515012 11.25558119 2.625 8.875 C2.69976562 7.59367187 2.77453125 6.31234375 2.8515625 4.9921875 C2.90054688 4.00476563 2.94953125 3.01734375 3 2 C2.01 2 1.02 2 0 2 C0 1.34 0 0.68 0 0 Z " fill="#C10C0E" transform="translate(239,287)"/>
<path d="M0 0 C0.99 0 1.98 0 3 0 C3 2.31 3 4.62 3 7 C4.32 6.67 5.64 6.34 7 6 C7 4.02 7 2.04 7 0 C8.32 0.33 9.64 0.66 11 1 C11.625 2.875 11.625 2.875 12 5 C11.34 5.66 10.68 6.32 10 7 C10.515625 7.391875 11.03125 7.78375 11.5625 8.1875 C13 10 13 10 12.875 12.5625 C12 15 12 15 9 17 C6.30078125 17.1953125 6.30078125 17.1953125 3.3125 17.125 C1.82169922 17.09792969 1.82169922 17.09792969 0.30078125 17.0703125 C-0.45847656 17.04710937 -1.21773437 17.02390625 -2 17 C-1.34 16.34 -0.68 15.68 0 15 C0.14497985 12.41935871 0.18677545 9.95056116 0.125 7.375 C0.11146484 6.31539063 0.11146484 6.31539063 0.09765625 5.234375 C0.07407603 3.48943902 0.03820461 1.74467705 0 0 Z " fill="#E10808" transform="translate(179,288)"/>
<path d="M0 0 C1.83984375 0.2109375 1.83984375 0.2109375 4 1 C5.37890625 3.0390625 5.37890625 3.0390625 6.5625 5.625 C6.98015625 6.5221875 7.3978125 7.419375 7.828125 8.34375 C8.40820312 9.65859375 8.40820312 9.65859375 9 11 C9.32484375 11.7321875 9.6496875 12.464375 9.984375 13.21875 C10.67352915 14.80510483 11.33971438 16.40141376 12 18 C9.69 18 7.38 18 5 18 C5.66 17.67 6.32 17.34 7 17 C6.67 16.01 6.34 15.02 6 14 C3.69 14 1.38 14 -1 14 C-1.33 14.99 -1.66 15.98 -2 17 C-1.34 17.33 -0.68 17.66 0 18 C-1.98 18 -3.96 18 -6 18 C-5.65066406 17.3709375 -5.30132812 16.741875 -4.94140625 16.09375 C-2.01558215 10.59021685 -0.34617589 6.23116607 0 0 Z " fill="#B00A0B" transform="translate(213,287)"/>
<path d="M0 0 C4.29 0 8.58 0 13 0 C13 1.65 13 3.3 13 5 C12.34 5 11.68 5 11 5 C11 4.01 11 3.02 11 2 C9.02 2 7.04 2 5 2 C5 3.98 5 5.96 5 8 C6.65 8 8.3 8 10 8 C10 8.66 10 9.32 10 10 C8.35 10 6.7 10 5 10 C5 12.31 5 14.62 5 17 C9.2787981 16.58413646 9.2787981 16.58413646 12.875 14.4375 C13.24625 13.963125 13.6175 13.48875 14 13 C14 14.65 14 16.3 14 18 C9.38 18 4.76 18 0 18 C0.66 17.67 1.32 17.34 2 17 C2 12.05 2 7.1 2 2 C1.34 2 0.68 2 0 2 C0 1.34 0 0.68 0 0 Z " fill="#D20909" transform="translate(303,287)"/>
<path d="M0 0 C0.99 0 1.98 0 3 0 C3 2.31 3 4.62 3 7 C4.32 7.33 5.64 7.66 7 8 C5.68 8 4.36 8 3 8 C3 10.64 3 13.28 3 16 C4.98 15.67 6.96 15.34 9 15 C8.67 12.69 8.34 10.38 8 8 C9.32 8.33 10.64 8.66 12 9 C12.1875 11.875 12.1875 11.875 12 15 C8.57905758 17.28062828 7.31812778 17.21925007 3.3125 17.125 C1.82169922 17.09792969 1.82169922 17.09792969 0.30078125 17.0703125 C-0.45847656 17.04710937 -1.21773438 17.02390625 -2 17 C-1.34 16.67 -0.68 16.34 0 16 C0 10.72 0 5.44 0 0 Z " fill="#DE0808" transform="translate(274,288)"/>
<path d="M0 0 C1.83984375 0.2109375 1.83984375 0.2109375 4 1 C5.37890625 3.0390625 5.37890625 3.0390625 6.5625 5.625 C6.98015625 6.5221875 7.3978125 7.419375 7.828125 8.34375 C8.40820312 9.65859375 8.40820312 9.65859375 9 11 C9.32484375 11.7321875 9.6496875 12.464375 9.984375 13.21875 C10.67352915 14.80510483 11.33971438 16.40141376 12 18 C9.69 18 7.38 18 5 18 C5.66 17.67 6.32 17.34 7 17 C6.02188201 14.54124468 5.04255369 12.08298363 4.0625 9.625 C3.78470703 8.92632812 3.50691406 8.22765625 3.22070312 7.5078125 C1.71533804 3.70767754 1.71533804 3.70767754 0 0 Z " fill="#D60909" transform="translate(213,287)"/>
<path d="M0 0 C4.75 0.75 4.75 0.75 7 3 C6.43181818 8.56818182 6.43181818 8.56818182 5 10 C3.35 10 1.7 10 0 10 C0 6.7 0 3.4 0 0 Z " fill="#26253A" transform="translate(339,247)"/>
<path d="M0 0 C1.98 0.495 1.98 0.495 4 1 C4.33 2.65 4.66 4.3 5 6 C3.02 6.99 3.02 6.99 1 8 C1.78927699 9.12667784 2.58151655 10.25128067 3.375 11.375 C4.03628906 12.31472656 4.03628906 12.31472656 4.7109375 13.2734375 C6.02808866 15.12380509 6.02808866 15.12380509 8 17 C5.75 17.3125 5.75 17.3125 3 17 C0.625 14.8125 0.625 14.8125 -1 12 C-0.75 9.1875 -0.75 9.1875 0 7 C0.66 7 1.32 7 2 7 C1.34 4.69 0.68 2.38 0 0 Z " fill="#D70809" transform="translate(343,288)"/>
<path d="M0 0 C1.98 0.495 1.98 0.495 4 1 C4.33 2.65 4.66 4.3 5 6 C3.02 6.99 3.02 6.99 1 8 C1.78927699 9.12667784 2.58151655 10.25128067 3.375 11.375 C4.03628906 12.31472656 4.03628906 12.31472656 4.7109375 13.2734375 C6.02808866 15.12380509 6.02808866 15.12380509 8 17 C5.75 17.3125 5.75 17.3125 3 17 C0.625 14.8125 0.625 14.8125 -1 12 C-0.75 9.1875 -0.75 9.1875 0 7 C0.66 7 1.32 7 2 7 C1.34 4.69 0.68 2.38 0 0 Z " fill="#D70808" transform="translate(249,288)"/>
<path d="M0 0 C2.375 -0.125 2.375 -0.125 5 0 C5.66 0.66 6.32 1.32 7 2 C6.67028521 5.29714793 6.3773161 6.6226839 4 9 C2.68 9 1.36 9 0 9 C0 6.03 0 3.06 0 0 Z " fill="#26243A" transform="translate(268,263)"/>
<path d="M0 0 C4.75 0.75 4.75 0.75 7 3 C6.625 5.625 6.625 5.625 6 8 C4.02 8.33 2.04 8.66 0 9 C0 6.03 0 3.06 0 0 Z " fill="#262439" transform="translate(268,246)"/>
<path d="M0 0 C-0.66 0.66 -1.32 1.32 -2 2 C-2.66 2 -3.32 2 -4 2 C-4 3.65 -4 5.3 -4 7 C-5.65 7.33 -7.3 7.66 -9 8 C-9 5.69 -9 3.38 -9 1 C-10.65 1.33 -12.3 1.66 -14 2 C-14 1.34 -14 0.68 -14 0 C-12.04235617 -0.19456705 -10.08384679 -0.38044247 -8.125 -0.5625 C-6.48917969 -0.71912109 -6.48917969 -0.71912109 -4.8203125 -0.87890625 C-2 -1 -2 -1 0 0 Z " fill="#871219" transform="translate(191,287)"/>
<path d="M0 0 C0.66 0 1.32 0 2 0 C2.33872513 1.41538717 2.67074624 2.83237963 3 4.25 C3.185625 5.03890625 3.37125 5.8278125 3.5625 6.640625 C4 9 4 9 4 13 C2.02 13 0.04 13 -2 13 C-1.39174965 8.65535464 -0.73832608 4.32448133 0 0 Z " fill="#22253B" transform="translate(189,250)"/>
<path d="M0 0 C2.97 0.495 2.97 0.495 6 1 C6.625 3.375 6.625 3.375 7 6 C6.34 6.66 5.68 7.32 5 8 C2.375 7.625 2.375 7.625 0 7 C0 4.69 0 2.38 0 0 Z " fill="#2C1010" transform="translate(182,296)"/>
<path d="M0 0 C4.875 0.875 4.875 0.875 6 2 C6.1875 4.4375 6.1875 4.4375 6 7 C5.34 7.66 4.68 8.32 4 9 C2.68 9 1.36 9 0 9 C0 6.03 0 3.06 0 0 Z " fill="#12283F" transform="translate(229,248)"/>
<path d="M0 0 C1.66611905 -0.042721 3.33382885 -0.04063832 5 0 C6 1 6 1 6.125 4 C6 7 6 7 5 8 C3.33382885 8.04063832 1.66611905 8.042721 0 8 C0 5.36 0 2.72 0 0 Z " fill="#10283F" transform="translate(147,263)"/>
<path d="M0 0 C1.66611905 -0.042721 3.33382885 -0.04063832 5 0 C6 1 6 1 6.0625 4.0625 C6.041875 5.031875 6.02125 6.00125 6 7 C4.02 7.33 2.04 7.66 0 8 C0 5.36 0 2.72 0 0 Z " fill="#0F2840" transform="translate(147,247)"/>
<path d="M0 0 C4.875 0.875 4.875 0.875 6 2 C6.04063832 3.66617115 6.042721 5.33388095 6 7 C4.02 7.33 2.04 7.66 0 8 C0 5.36 0 2.72 0 0 Z " fill="#1E1111" transform="translate(277,296)"/>
<path d="M0 0 C1.66611905 -0.042721 3.33382885 -0.04063832 5 0 C6 1 6 1 6.0625 3.5625 C6.041875 4.366875 6.02125 5.17125 6 6 C4.02 6.33 2.04 6.66 0 7 C0 4.69 0 2.38 0 0 Z " fill="#171315" transform="translate(339,289)"/>
<path d="M0 0 C1.66611905 -0.042721 3.33382885 -0.04063832 5 0 C6 1 6 1 6.0625 3.5625 C6.041875 4.366875 6.02125 5.17125 6 6 C4.02 6.33 2.04 6.66 0 7 C0 4.69 0 2.38 0 0 Z " fill="#171314" transform="translate(245,289)"/>
<path d="M0 0 C1.65 0 3.3 0 5 0 C5 1.65 5 3.3 5 5 C3.35 5.33 1.7 5.66 0 6 C0 4.02 0 2.04 0 0 Z " fill="#18161B" transform="translate(277,289)"/>
<path d="M0 0 C4.29 0 8.58 0 13 0 C13 1.65 13 3.3 13 5 C12.34 5 11.68 5 11 5 C11 4.01 11 3.02 11 2 C7.37 2 3.74 2 0 2 C0 1.34 0 0.68 0 0 Z " fill="#A91117" transform="translate(303,287)"/>
<path d="M0 0 C1.98 0.495 1.98 0.495 4 1 C4 2.98 4 4.96 4 7 C2.35 7.66 0.7 8.32 -1 9 C-1 8.34 -1 7.68 -1 7 C-0.34 7 0.32 7 1 7 C0.67 4.69 0.34 2.38 0 0 Z " fill="#C60909" transform="translate(282,296)"/>
<path d="M0 0 C1.61013585 0.73709784 3.21292391 1.49025857 4.8125 2.25 C5.70582031 2.66765625 6.59914063 3.0853125 7.51953125 3.515625 C10.10928331 5.06539789 11.38180834 6.48400766 13 9 C8.33138019 7.39516194 3.90741833 5.02509806 0 2 C0 1.34 0 0.68 0 0 Z " fill="#C20B0D" transform="translate(367,286)"/>
<path d="M0 0 C1.32 0.33 2.64 0.66 4 1 C4.33 2.32 4.66 3.64 5 5 C3.35 6.32 1.7 7.64 0 9 C0 6.03 0 3.06 0 0 Z " fill="#C10909" transform="translate(186,288)"/>
<path d="M0 0 C1.32 0 2.64 0 4 0 C4 1.65 4 3.3 4 5 C2.68 5.33 1.36 5.66 0 6 C0 4.02 0 2.04 0 0 Z " fill="#131213" transform="translate(183,289)"/>
<path d="M0 0 C0.66 0.33 1.32 0.66 2 1 C2.625 3.5625 2.625 3.5625 3 6 C1.35 6 -0.3 6 -2 6 C-1.34 4.02 -0.68 2.04 0 0 Z " fill="#1F1111" transform="translate(215,292)"/>
</svg>
